<?xml version="1.0" encoding="UTF-8"?>
<svg id="Layer_1" xmlns="http://www.w3.org/2000/svg" version="1.1" viewBox="0 0 1295 1215">
  <!-- Generator: Adobe Illustrator 30.3.0, SVG Export Plug-In . SVG Version: 2.1.3 Build 182)  -->
  <defs>
    <style>
      .st0 {
        fill: none;
      }

      .st1 {
        fill: #6c6c6d;
      }

      .st2 {
        fill: #909090;
      }

      .st3 {
        fill: #b3b3b3;
      }

      .st4 {
        fill: #848484;
      }

      .st5 {
        fill: #fdfdfd;
      }

      .st6 {
        fill: #b2b2b2;
      }
    </style>
  </defs>
  <g>
    <path class="st6" d="M1212.86,450.09l-21.21,21.49.93,1.9-195.22,196.52c-3.07,1-4.67.75-5.73-3.17-67.12-143.6-184.73-250.18-350.05-244.04-154.83,5.75-265.97,108.85-328.33,244.33-1,3.39-2.54,3.88-5.29,3.36-68.49-67.99-136.29-135.81-203.4-203.46l-.45-3.29-13.81-13.74-.77-1.93c71.64-154.7,191.25-278.2,351.25-340.63,143.83-56.12,302.34-55.6,443.02,6.94,148.82,66.16,261.36,184.96,329.43,333.19l-.37,2.55Z"/>
    <path class="st2" d="M78.99,460.32l92.05,92.59,61.52,61.65,143.81,145.95,56.06,57.96,29.21,30.11,129.85,134.73c-11.94,28.1-5.8,61.32,17.43,81.75,23.67,20.81,58.65,21.15,83.63,2.58,25.17-20.6,32.62-53.29,19.78-84.14l74.79-77.31,40-41.29,143.44-148.39,170.9-171.93,67.06-67.9,31.74-32.3,13.87,29.92-84.27,94.51-68.08,79.03-112.13,131.79-113.07,134.86-105.1,126.82-37.29,43.84c-26.88,31.6-65.7,47.28-106.45,37-33.49-8.45-54-31.56-75.07-57.05l-116.25-140.64c-101.03-122.22-203.96-242.04-308.13-361.56l-79.15-88.83,13.71-29.79,16.17,16.03Z"/>
    <path class="st4" d="M1212.86,450.09c-2.09-1.83-2.6-4.29-3.97-7.11-18.48-38.1-39.39-74.38-63.56-109.26-38.45-55.49-83.75-102.76-137.15-143.92s-132.23-82.11-200.09-100.87c-36.04-9.96-71.7-16.47-108.99-18.85-20.46-1.3-39.39-2.24-59.77-1.55-111.96,3.75-219,38.69-312.71,100.12-68.2,44.71-125.94,102.76-171.97,170.02-23.53,34.38-44.22,70.36-62,107.83-.83,1.75-1.28,2.76-2.37,3.48l-20.69-20.8c21.31-42.56,44.48-83.06,72.38-121.19,29.14-39.8,61.62-76.71,98.68-109.34,118.24-104.08,275.98-165.73,434.24-159.2,49.09,2.03,97.97,8.61,144.99,22.62,131.99,39.32,246.9,120.69,329.92,230.21,32.46,42.82,60.53,88.77,83.61,137.49l-20.57,20.32Z"/>
    <path class="st3" d="M661.74,744.47c-.27,5.18-4.83,9.92-11.19,9.5-6.58-.44-10.4-6.19-9.77-11.48.69-5.77,6.24-9.49,12.28-8.79,5.72.67,8.95,5.45,8.68,10.77Z"/>
    <path class="st3" d="M858.1,763.93c-10.39-15.39-6.92-34.85,7.6-46.67l-82.78-83.07-42.09-42.98-29.85-31.17-25.91-26.6-30.75,29.86c-.89.87-1.84,1.6-2.71,1.51-.63-.07-1.59-.5-2.29-1.17l-31.29-30.22-55.49,56.12-61.63,62.39-64.42,65.14c15.64,12.88,17.62,34.3,5.61,50.14l-8.44,9.33,47.33,48.4,33.73,34.37,46.66,47.33,52.71,52.63c23.29-17.39,54.94-16.77,77.48.87l91.8-94.14,37.66-38.99,48.09-50.4c-4.14-3.95-7.77-7.86-11.02-12.68ZM699,750.11c-3.08,24.97-24.82,42.57-49.35,41.4-24.92-1.19-44.64-21-45.25-46.55-.67-27.9,22.25-49.81,49.25-48.77,28.07,1.08,48.87,25.41,45.35,53.92Z"/>
    <polygon class="st1" points="680.23 1015.76 652.65 1042.79 624.87 1015.69 624.88 980.83 680.07 980.8 680.23 1015.76"/>
    <polygon class="st1" points="651.92 543.54 624.97 517.34 651.5 491.05 678.15 517.39 651.92 543.54"/>
    <polygon class="st1" points="409.76 769.71 382.99 743.59 409.32 717.28 436.04 743.46 409.76 769.71"/>
    <polygon class="st1" points="894.28 769.67 867.81 743.64 894.01 717.47 920.24 743.69 894.28 769.67"/>
    <path class="st5" d="M661.74,744.47c-.27,5.18-4.83,9.92-11.19,9.5-6.58-.44-10.4-6.19-9.77-11.48.69-5.77,6.24-9.49,12.28-8.79,5.72.67,8.95,5.45,8.68,10.77Z"/>
    <path class="st1" d="M661.74,744.47c-.27,5.18-4.83,9.92-11.19,9.5-6.58-.44-10.4-6.19-9.77-11.48.69-5.77,6.24-9.49,12.28-8.79,5.72.67,8.95,5.45,8.68,10.77Z"/>
  </g>
  <line class="st0" x1="69.61" y1="429.18" x2="62.82" y2="444.28"/>
</svg>